# Blender v2.91.0 OBJ File: ''
# www.blender.org
mtllib fish-lowpoly.mtl
o fish_Cube
v -0.006397 0.833576 -0.451694
v -0.006397 0.624684 0.359513
v -0.006397 0.385442 -1.286852
v -0.006397 0.460713 -1.431755
v -0.006397 0.497868 -1.420145
v -0.006397 0.971132 0.158148
v -0.006397 1.167970 -0.205543
v -0.006397 1.212170 -0.115976
v 0.009813 -0.540707 -1.401203
v 0.009813 -0.240759 -1.726182
v 0.009813 -0.173155 -1.550083
v 0.009813 -0.407308 -1.143828
v 0.009813 -0.652946 -1.685670
v 0.009813 -0.500069 -1.755209
v 0.009813 -0.649075 -1.815324
v 0.009813 -0.620048 -1.830680
v 0.079772 -0.739764 0.101797
v 0.074526 -0.504713 0.071442
v 0.081046 -0.436862 0.152880
v 0.081046 -0.448839 0.319632
v 0.083897 -0.483217 -0.111762
v 0.083897 -0.866705 -0.087994
v 0.083897 -0.629160 -0.215785
v 0.083897 -0.874468 -0.202885
v 0.083897 -0.823232 -0.254600
v 0.091641 -0.654880 1.089788
v 0.091641 -0.394999 1.078002
v 0.091641 -0.327020 1.197336
v 0.091641 -0.409264 1.301042
v 0.091641 -0.372671 0.887712
v 0.091641 -0.770989 0.912400
v 0.091641 -0.524258 0.779667
v 0.091641 -0.779052 0.793066
v 0.091641 -0.725836 0.739351
v -0.011457 -0.440080 1.722567
v 0.092624 -0.383244 1.685697
v 0.068301 -0.195554 2.194595
v -0.098270 -0.401570 1.716262
v 0.053851 -0.007024 2.196050
v -0.095052 -0.033686 2.188896
v -0.112529 -0.191032 2.163404
v -0.011950 0.552362 1.159258
v 0.100940 0.440435 1.230495
v 0.075910 0.633241 0.127437
v -0.056995 0.686696 0.211899
v -0.123505 0.412062 1.294217
v -0.010702 -0.537315 -0.170984
v -0.117043 0.230151 -1.723372
v -0.113056 -0.387098 -0.956886
v 0.051169 -0.424450 -1.036772
v -0.008915 0.585186 -0.692212
v 0.098226 0.221039 -1.743231
v -0.087889 0.320882 -2.003819
v -0.122697 -0.092688 -1.744018
v -0.013538 -0.158170 -1.702986
v 0.063120 -0.211308 -2.037413
v -0.093638 -0.177678 -1.902656
v -0.063971 -0.540427 -2.795957
v 0.099054 -0.116982 -1.699019
v -0.008784 0.269947 -1.720783
v 0.063658 0.317461 -1.981470
v 0.086509 0.053848 -2.492815
v 0.010385 -0.592707 -2.834904
v -0.116359 0.073857 -2.201452
v -0.059610 0.095226 -2.561686
v -0.050196 0.675065 -2.844093
v 0.016828 0.704649 -2.842160
v -0.102002 -0.518447 0.286178
v -0.102002 -0.504713 0.071442
v -0.102002 -0.439265 0.186333
v -0.102002 -0.754919 0.082790
v -0.102002 -0.483217 -0.111762
v -0.102002 -0.866705 -0.087994
v -0.102002 -0.629160 -0.215785
v -0.102002 -0.874468 -0.202885
v -0.102002 -0.823232 -0.254600
v -0.114524 -0.654880 1.089788
v -0.114524 -0.394999 1.078002
v -0.114524 -0.327020 1.197336
v -0.114524 -0.409264 1.301042
v -0.114524 -0.372671 0.887712
v -0.114524 -0.770989 0.912400
v -0.114524 -0.524258 0.779667
v -0.114524 -0.779052 0.793066
v -0.114524 -0.725836 0.739351
vt 0.428299 0.840943
vt 0.397200 0.726800
vt 0.520500 0.784500
vt 0.190553 0.257291
vt 0.201031 0.280480
vt 0.121851 0.355318
vt 0.121325 0.423117
vt 0.261733 0.586005
vt 0.120978 0.418400
vt 0.123585 0.357422
vt 0.276944 0.654858
vt 0.267607 0.603339
vt 0.419431 0.709006
vt 0.711515 0.530948
vt 0.477764 0.217496
vt 0.191576 0.277885
vt 0.432386 0.688045
vt 0.556482 0.672118
vt 0.607701 0.271191
vt 0.710543 0.374864
vt 0.715085 0.527065
vt 0.712945 0.557873
vt 0.593915 0.279407
vt 0.753302 0.570454
vt 0.715991 0.391479
vt 0.710636 0.354367
vt 0.876220 0.209002
vt 0.879717 0.199791
vt 0.765655 0.351573
vt 0.751162 0.558161
vt 0.877443 0.708150
vt 0.842109 0.476736
vt 0.821542 0.476938
vt 0.881260 0.710835
vt 0.742155 0.356375
vt 0.835009 0.455822
vt 0.439300 0.116200
vt 0.441000 0.221500
vt 0.408300 0.215700
vt 0.483100 0.925200
vt 0.469500 0.943800
vt 0.669500 0.627600
vt 0.667800 0.643300
vt 0.687500 0.360900
vt 0.625800 0.262400
vt 0.664900 0.206300
vt 0.714300 0.332500
vt 0.718700 0.223400
vt 0.708100 0.159100
vt 0.730200 0.172900
vt 0.727900 0.160700
vt 0.423500 0.249000
vt 0.408300 0.215700
vt 0.436910 0.123863
vt 0.441000 0.221500
vt 0.484700 0.169100
vt 0.468800 0.230500
vt 0.465200 0.069200
vt 0.490600 0.087500
vt 0.482700 0.065900
vt 0.269800 0.296200
vt 0.254000 0.261600
vt 0.286200 0.158300
vt 0.287900 0.267600
vt 0.333300 0.213200
vt 0.316900 0.277000
vt 0.313100 0.109400
vt 0.339400 0.128400
vt 0.331300 0.106000
vt 0.647500 0.596000
vt 0.484700 0.169100
vt 0.468800 0.230500
vt 0.465200 0.069200
vt 0.423500 0.249000
vt 0.490600 0.087500
vt 0.482700 0.065900
vt 0.269800 0.296200
vt 0.254000 0.261600
vt 0.286200 0.158300
vt 0.287900 0.267600
vt 0.333300 0.213200
vt 0.316900 0.277000
vt 0.313100 0.109400
vt 0.339400 0.128400
vt 0.331300 0.106000
vn 1.0000 0.0000 0.0000
vn 0.0951 -0.9640 0.2483
vn 0.8542 -0.5066 0.1168
vn 0.5334 -0.4419 0.7212
vn 0.5044 0.4481 0.7381
vn -0.8504 0.4720 0.2327
vn -0.6099 0.3686 0.7016
vn -0.6970 -0.3948 0.5986
vn -0.0677 0.9668 0.2465
vn 0.8586 0.4780 0.1855
vn -0.4004 0.9158 0.0311
vn -0.8700 0.4916 -0.0387
vn 0.0268 -0.9996 -0.0106
vn -0.7513 -0.6376 0.1703
vn 0.7949 0.6065 -0.0183
vn -0.0116 0.9808 -0.1945
vn 0.4783 -0.8517 -0.2140
vn 0.8798 -0.4693 -0.0760
vn 0.8975 0.4396 -0.0347
vn 0.0318 0.9994 -0.0164
vn -0.7863 -0.6037 -0.1313
vn -0.8607 0.4844 0.1568
vn -0.9290 -0.3683 -0.0354
vn -0.0822 -0.9942 -0.0690
vn -0.7911 -0.3762 -0.4824
vn 0.2531 -0.7047 -0.6628
vn 0.9168 -0.3805 0.1210
vn 0.8839 0.4451 0.1436
vn 0.3911 0.7135 -0.5813
vn -0.6040 -0.0696 -0.7939
vn -0.9998 0.0140 -0.0111
vn -0.5866 0.4042 -0.7018
vn -0.8668 -0.4755 0.1506
vn 0.9255 0.0154 -0.3783
vn 0.9997 0.0002 -0.0263
vn 0.9999 0.0064 0.0107
vn 0.9998 0.0136 0.0108
vn 1.0000 0.0006 0.0099
vn 0.9995 0.0113 0.0284
vn 1.0000 0.0005 0.0075
usemtl Material.001
s 1
f 6/1/1 2/2/1 1/3/1
f 35/4/2 36/5/3 37/6/4
f 39/7/5 46/8/6 40/9/7
f 40/9/7 46/8/6 41/10/8
f 46/8/6 39/7/5 42/11/9
f 39/7/5 43/12/10 42/11/9
f 42/11/9 45/13/11 46/8/6
f 46/8/6 45/13/11 48/14/12
f 36/5/3 35/4/2 47/15/13
f 35/4/2 38/16/14 47/15/13
f 44/17/15 51/18/16 45/13/11
f 36/5/3 50/19/17 59/20/18
f 52/21/19 60/22/20 51/18/16
f 60/22/20 48/14/12 51/18/16
f 49/23/21 50/19/17 47/15/13
f 51/18/16 44/17/15 52/21/19
f 48/14/12 53/24/22 54/25/23
f 50/19/17 49/23/21 54/25/23
f 54/25/23 55/26/24 50/19/17
f 55/26/24 58/27/25 63/28/26
f 55/26/24 56/29/27 59/20/18
f 59/20/18 56/29/27 52/21/19
f 60/22/20 61/30/28 67/31/29
f 65/32/30 64/33/31 66/34/32
f 52/21/19 56/29/27 61/30/28
f 54/25/23 53/24/22 57/35/33
f 49/23/21 38/16/14 41/10/8
f 41/10/8 46/8/6 49/23/21
f 67/31/29 61/30/28 62/36/34
f 71/37/1 69/38/1 68/39/1
f 7/40/1 8/41/1 6/1/1 1/3/1
f 1/3/1 4/42/1 5/43/1
f 11/44/1 12/45/1 9/46/1 10/47/1
f 14/48/1 10/47/1 9/46/1 13/49/1
f 16/50/1 14/48/1 13/49/1 15/51/1
f 19/52/35 20/53/35 17/54/36 18/55/37
f 23/56/38 21/57/39 17/54/36 22/58/40
f 17/54/36 21/57/39 18/55/37
f 25/59/1 23/56/38 22/58/40 24/60/1
f 28/61/1 29/62/1 26/63/1 27/64/1
f 32/65/1 30/66/1 26/63/1 31/67/1
f 26/63/1 30/66/1 27/64/1
f 34/68/1 32/65/1 31/67/1 33/69/1
f 38/16/14 35/4/2 37/6/4 41/10/8
f 36/5/3 43/12/10 39/7/5 37/6/4
f 3/70/1 4/42/1 1/3/1 2/2/1
f 44/17/15 45/13/11 42/11/9 43/12/10
f 40/9/7 41/10/8 37/6/4 39/7/5
f 38/16/14 49/23/21 47/15/13
f 47/15/13 50/19/17 36/5/3
f 36/5/3 59/20/18 43/12/10
f 51/18/16 48/14/12 45/13/11
f 59/20/18 52/21/19 43/12/10
f 48/14/12 54/25/23 46/8/6
f 55/26/24 59/20/18 50/19/17
f 55/26/24 57/35/33 58/27/25
f 55/26/24 63/28/26 56/29/27
f 53/24/22 48/14/12 60/22/20
f 60/22/20 52/21/19 61/30/28
f 54/25/23 57/35/33 55/26/24
f 63/28/26 62/36/34 56/29/27
f 60/22/20 67/31/29 53/24/22
f 64/33/31 58/27/25 57/35/33
f 57/35/33 53/24/22 64/33/31
f 61/30/28 56/29/27 62/36/34
f 66/34/32 64/33/31 53/24/22
f 54/25/23 49/23/21 46/8/6
f 52/21/19 44/17/15 43/12/10
f 66/34/32 53/24/22 67/31/29
f 65/32/30 67/31/29 62/36/34
f 65/32/30 66/34/32 67/31/29
f 64/33/31 65/32/30 58/27/25
f 63/28/26 58/27/25 65/32/30
f 63/28/26 65/32/30 62/36/34
f 74/71/1 72/72/1 71/37/1 73/73/1
f 68/39/1 69/38/1 70/74/1
f 71/37/1 72/72/1 69/38/1
f 76/75/1 74/71/1 73/73/1 75/76/1
f 79/77/1 80/78/1 77/79/1 78/80/1
f 83/81/1 81/82/1 77/79/1 82/83/1
f 77/79/1 81/82/1 78/80/1
f 85/84/1 83/81/1 82/83/1 84/85/1
